<?xml version="1.0" encoding="UTF-8" standalone="no" ?>
<!DOCTYPE svg PUBLIC "-//W3C//DTD SVG 1.1//EN" "http://www.w3.org/Graphics/SVG/1.1/DTD/svg11.dtd">
<svg xmlns="http://www.w3.org/2000/svg" xmlns:xlink="http://www.w3.org/1999/xlink" version="1.1" width="1080" height="1080" viewBox="0 0 1080 1080" xml:space="preserve">
<desc>Created with Fabric.js 5.2.4</desc>
<defs>
</defs>
<g transform="matrix(1 0 0 1 540 540)" id="aed5881a-2fdc-4f5f-b304-43e9b948f028"  >
<rect style="stroke: none; stroke-width: 1; stroke-dasharray: none; stroke-linecap: butt; stroke-dashoffset: 0; stroke-linejoin: miter; stroke-miterlimit: 4; fill: rgb(255,255,255); fill-rule: nonzero; opacity: 1; visibility: hidden;" vector-effect="non-scaling-stroke"  x="-540" y="-540" rx="0" ry="0" width="1080" height="1080" />
</g>
<g transform="matrix(1 0 0 1 540 540)" id="c0d888cc-f9cb-4ae8-8cfa-71ff98d95c76"  >
</g>
<g transform="matrix(1 0 0 1.45 540.5 539.17)" style="" id="191ecbe9-6149-4b2d-b07d-933c2034771b"  >
		<rect opacity="0.62" fill="rgb(40,22,65)" x="-432" y="-113.79" width="864" height="227.58"></rect>
		<text xml:space="preserve" font-family="Raleway" font-size="106" font-style="normal" font-weight="900" style="stroke: none; stroke-width: 1; stroke-dasharray: none; stroke-linecap: butt; stroke-dashoffset: 0; stroke-linejoin: miter; stroke-miterlimit: 4; fill: rgb(15,12,165); fill-rule: nonzero; opacity: 1; white-space: pre;" ><tspan x="-241.73" y="-20.6" >C</tspan><tspan x="-176.01" y="-20.6" >O</tspan><tspan x="-101.28" y="-20.6" >R</tspan><tspan x="-36.09" y="-20.6" >R</tspan><tspan x="29.1" y="-20.6" >I</tspan><tspan x="56.34" y="-20.6" >E</tspan><tspan x="113.26" y="-20.6" >R</tspan><tspan x="178.45" y="-20.6" >E</tspan><tspan x="-382.71" y="87.2" >D</tspan><tspan x="-313.18" y="87.2" >E</tspan><tspan x="-256.25" y="87.2" >L</tspan><tspan x="-200.6" y="87.2" style="white-space: pre; "> </tspan><tspan x="-183.11" y="87.2" >D</tspan><tspan x="-113.58" y="87.2" >E</tspan><tspan x="-56.66" y="87.2" >V</tspan><tspan x="8.22" y="87.2" >E</tspan><tspan x="65.14" y="87.2" >L</tspan><tspan x="119.83" y="87.2" >O</tspan><tspan x="194.56" y="87.2" >P</tspan><tspan x="254.24" y="87.2" >E</tspan><tspan x="311.16" y="87.2" >R</tspan></text>
</g>
<g transform="matrix(1 0 0 1 540 540)" id="1951e785-59a4-4e9f-b178-202a5e4753ac"  >
<path style="stroke: rgb(0,0,0); stroke-width: 0; stroke-dasharray: none; stroke-linecap: butt; stroke-dashoffset: 0; stroke-linejoin: miter; stroke-miterlimit: 4; fill: rgb(101,101,101); fill-rule: nonzero; opacity: 1;" vector-effect="non-scaling-stroke"  transform=" translate(-50, -50)" d="M 76.854 20.966 C 81.821 20.966 85.82 24.965 85.82 29.872 L 85.82 77.366 C 85.82 82.275 81.821 86.332 76.854 86.332 L 29.417 86.332 C 24.450000000000003 86.332 20.451 82.27499999999999 20.451 77.366 C 20.633 70.762 37.172 68.342 48.925 63.192 L 15.907 30.176 C 13.605 27.813 13.605 24.055999999999997 15.907 21.753999999999998 L 22.268 15.392999999999997 C 24.57 13.090999999999998 28.326 13.090999999999998 30.628 15.392999999999997 L 63.221000000000004 48.047 C 67.888 36.597 70.188 21.814 76.854 20.966 z" stroke-linecap="round" />
</g>
<g transform="matrix(1 0 0 1 257.85 302.5)" id="f767ef71-a909-45e0-96ff-63263d8d70bb"  >
<path style="stroke: rgb(0,0,0); stroke-width: 0; stroke-dasharray: none; stroke-linecap: butt; stroke-dashoffset: 0; stroke-linejoin: miter; stroke-miterlimit: 4; fill: rgb(101,101,101); fill-rule: nonzero; opacity: 1;" vector-effect="non-scaling-stroke"  transform=" translate(-50, -50)" d="M 76.854 20.966 C 81.821 20.966 85.82 24.965 85.82 29.872 L 85.82 77.366 C 85.82 82.275 81.821 86.332 76.854 86.332 L 29.417 86.332 C 24.450000000000003 86.332 20.451 82.27499999999999 20.451 77.366 C 20.633 70.762 37.172 68.342 48.925 63.192 L 15.907 30.176 C 13.605 27.813 13.605 24.055999999999997 15.907 21.753999999999998 L 22.268 15.392999999999997 C 24.57 13.090999999999998 28.326 13.090999999999998 30.628 15.392999999999997 L 63.221000000000004 48.047 C 67.888 36.597 70.188 21.814 76.854 20.966 z" stroke-linecap="round" />
</g>
<g transform="matrix(1 0 0 1 870.87 304.53)" id="d70e94ba-b083-45b9-95cc-7fdd93a8c3cc"  >
<path style="stroke: rgb(0,0,0); stroke-width: 0; stroke-dasharray: none; stroke-linecap: butt; stroke-dashoffset: 0; stroke-linejoin: miter; stroke-miterlimit: 4; fill: rgb(101,101,101); fill-rule: nonzero; opacity: 1;" vector-effect="non-scaling-stroke"  transform=" translate(-50.5, -50)" d="M 22.66 19.967 C 17.585 19.967 13.448 24.104 13.448 29.180999999999997 L 13.448 78.31 C 13.448 83.387 17.585 87.584 22.723 87.584 L 71.791 87.584 C 76.868 87.584 81.065 83.387 81.065 78.31 C 80.814 71.479 63.769999999999996 68.974 51.613 63.646 L 85.765 29.494999999999997 C 88.146 27.051 88.146 23.165 85.765 20.784 L 79.187 14.203999999999999 C 76.803 11.822999999999999 72.919 11.822999999999999 70.538 14.203999999999999 L 36.76 47.981 C 31.998 36.137 29.616 20.846 22.66 19.967 z" stroke-linecap="round" />
</g>
</svg>