<?xml version="1.0" encoding="UTF-8" standalone="no" ?>
<!DOCTYPE svg PUBLIC "-//W3C//DTD SVG 1.1//EN" "http://www.w3.org/Graphics/SVG/1.1/DTD/svg11.dtd">
<svg xmlns="http://www.w3.org/2000/svg" xmlns:xlink="http://www.w3.org/1999/xlink" version="1.1" width="1080" height="1080" viewBox="0 0 1080 1080" xml:space="preserve">
<desc>Created with Fabric.js 5.2.4</desc>
<defs>
</defs>
<g transform="matrix(1 0 0 1 540 540)" id="94e4a35d-fa44-4eb8-bed2-f17b0581c29e"  >
<rect style="stroke: none; stroke-width: 1; stroke-dasharray: none; stroke-linecap: butt; stroke-dashoffset: 0; stroke-linejoin: miter; stroke-miterlimit: 4; fill: rgb(255,255,255); fill-rule: nonzero; opacity: 1; visibility: hidden;" vector-effect="non-scaling-stroke"  x="-540" y="-540" rx="0" ry="0" width="1080" height="1080" />
</g>
<g transform="matrix(1 0 0 1 540 540)" id="d1425109-0752-4970-b191-060d48f7b913"  >
</g>
<g transform="matrix(14.89 0 0 14.89 534.55 534.55)" id="a7ccd56a-f7a2-43a2-85e1-82706cab027c"  >
<circle style="stroke: rgb(0,0,0); stroke-width: 0; stroke-dasharray: none; stroke-linecap: butt; stroke-dashoffset: 0; stroke-linejoin: miter; stroke-miterlimit: 4; fill: rgb(12,45,194); fill-rule: nonzero; opacity: 1;" vector-effect="non-scaling-stroke"  cx="0" cy="0" r="35" />
</g>
<g transform="matrix(9.59 0 0 9.59 552.69 554.19)"  >
<g style="" vector-effect="non-scaling-stroke"   >
		<g transform="matrix(1 0 0 1 0 -12.13)"  >
<path style="stroke: none; stroke-width: 1; stroke-dasharray: none; stroke-linecap: butt; stroke-dashoffset: 0; stroke-linejoin: miter; stroke-miterlimit: 4; fill: rgb(181,173,173); fill-rule: nonzero; opacity: 1;" vector-effect="non-scaling-stroke"  transform=" translate(-50, -37.87)" d="M 78.954 13.423 L 21.042 13.423 C 19.004 13.423 17.340000000000003 15.087 17.340000000000003 17.127 L 17.340000000000003 58.616 C 17.340000000000003 60.653 19.004000000000005 62.317 21.042 62.317 L 78.95400000000001 62.317 C 80.995 62.317 82.659 60.653 82.659 58.616 L 82.659 17.126 C 82.659 15.087 80.995 13.423 78.954 13.423 z M 76.273 51.637 C 76.273 53.033 75.145 54.159 73.747 54.159 L 26.249 54.159 C 24.855 54.159 23.727 53.033 23.727 51.637 L 23.727 23.245 C 23.727 21.849 24.855 20.721 26.249 20.721 L 73.747 20.721 C 75.145 20.721 76.273 21.849 76.273 23.245 L 76.273 51.637 z" stroke-linecap="round" />
</g>
		<g transform="matrix(1 0 0 1 0 26.33)"  >
<path style="stroke: none; stroke-width: 1; stroke-dasharray: none; stroke-linecap: butt; stroke-dashoffset: 0; stroke-linejoin: miter; stroke-miterlimit: 4; fill: rgb(181,173,173); fill-rule: nonzero; opacity: 1;" vector-effect="non-scaling-stroke"  transform=" translate(-50, -76.33)" d="M 80.726 66.074 L 19.271 66.074 C 18.146 66.074 17.34 66.931 17.34 68.007 L 17.34 84.646 C 17.34 85.666 18.146 86.577 19.271 86.577 L 80.726 86.577 C 81.854 86.577 82.66 85.666 82.66 84.646 L 82.66 68.007 C 82.659 66.932 81.854 66.074 80.726 66.074 z M 75.09 75.092 L 59.203 75.092 C 58.293000000000006 75.092 57.594 74.395 57.594 73.482 C 57.594 72.569 58.293 71.872 59.203 71.872 L 75.09 71.872 C 76.003 71.872 76.754 72.569 76.754 73.482 C 76.754 74.395 76.003 75.092 75.09 75.092 z" stroke-linecap="round" />
</g>
</g>
</g>
</svg>